#N canvas -73 -13 1920 997 12;
#N canvas 267 158 1391 696 output 0;
#X obj 617 76 inlet~;
#X obj 601 258 *~ 1;
#X obj 15 50 vsl 40 200 0 1 0 0 empty empty empty 0 -9 0 12 #fcfcfc #000000 #000000 0 1;
#X text 19 30 main;
#X obj 722 214 r cut;
#X msg 722 238 0;
#X obj 664 215 r wake;
#X msg 664 239 1;
#X obj 593 299 *~ 1;
#X obj 643 18 loadbang;
#X obj 64 50 vu 30 200 empty empty -1 -10 0 12 #404040 #000000 0 0;
#X obj 94 467 env~;
#X obj 96 490 - 95;
#X obj 136 486 env~;
#X obj 138 509 - 95;
#X obj 514 48 vu 30 200 empty empty -1 -10 0 12 #404040 #000000 1 0;
#X obj 1117 263 arraysp, f 31;
#X obj 559 399 *~;
#X obj 588 399 *~;
#X obj 617 399 *~;
#X obj 646 399 *~;
#X obj 675 399 *~;
#X obj 704 399 *~;
#X obj 733 399 *~;
#X obj 762 399 *~;
#X obj 104 50 vu 30 200 empty empty -1 -10 0 12 #404040 #000000 0 0;
#X obj 146 50 vu 30 200 empty empty -1 -10 0 12 #404040 #000000 0 0;
#X obj 186 50 vu 30 200 empty empty -1 -10 0 12 #404040 #000000 0 0;
#X obj 226 49 vu 30 200 empty empty -1 -10 0 12 #404040 #000000 0 0;
#X obj 266 49 vu 30 200 empty empty -1 -10 0 12 #404040 #000000 0 0;
#X obj 308 49 vu 30 200 empty empty -1 -10 0 12 #404040 #000000 0 0;
#X obj 175 474 env~;
#X obj 177 497 - 95;
#X obj 217 493 env~;
#X obj 219 516 - 95;
#X obj 255 475 env~;
#X obj 257 498 - 95;
#X obj 297 494 env~;
#X obj 299 517 - 95;
#X obj 336 482 env~;
#X obj 338 505 - 95;
#X obj 378 501 env~;
#X obj 380 524 - 95;
#X obj 1116 123 inlet;
#X obj 350 49 vu 30 200 empty empty -1 -10 0 12 #404040 #000000 0 0;
#X obj 432 50 vu 30 200 empty empty -1 -10 0 12 #404040 #000000 0 0;
#X obj 474 50 vu 30 200 empty empty -1 -10 0 12 #404040 #000000 0 0;
#X obj 791 399 *~;
#X obj 820 399 *~;
#X obj 849 399 *~;
#X obj 878 399 *~;
#X obj 636 508 dac~ 1 2 3 4 5 6 7 8 9 10 11 12;
#X obj 417 484 env~;
#X obj 419 507 - 95;
#X obj 459 503 env~;
#X obj 461 526 - 95;
#X obj 498 491 env~;
#X obj 500 514 - 95;
#X obj 540 510 env~;
#X obj 542 533 - 95;
#X obj 390 49 vu 30 200 empty empty -1 -10 0 12 #404040 #000000 0 0;
#X obj 1295 128 inlet;
#X obj 834 63 inlet~;
#X obj 844 73 inlet~;
#X obj 854 83 inlet~;
#X obj 864 93 inlet~;
#X obj 874 103 inlet~;
#X obj 884 113 inlet~;
#X obj 894 123 inlet~;
#X obj 904 133 inlet~;
#X obj 914 143 inlet~;
#X obj 924 153 inlet~;
#X obj 934 163 inlet~;
#X obj 944 173 inlet~;
#X text 127 19 main --- channels 1-12 --- angle --- sharpness;
#X msg 606 17 0.4;
#X connect 0 0 1 0;
#X connect 1 0 8 0;
#X connect 2 0 1 1;
#X connect 4 0 5 0;
#X connect 5 0 8 1;
#X connect 6 0 7 0;
#X connect 7 0 8 1;
#X connect 8 0 17 0;
#X connect 8 0 24 0;
#X connect 8 0 23 0;
#X connect 8 0 22 0;
#X connect 8 0 21 0;
#X connect 8 0 20 0;
#X connect 8 0 19 0;
#X connect 8 0 18 0;
#X connect 8 0 47 0;
#X connect 8 0 48 0;
#X connect 8 0 49 0;
#X connect 8 0 50 0;
#X connect 9 0 75 0;
#X connect 11 0 12 0;
#X connect 12 0 10 0;
#X connect 13 0 14 0;
#X connect 14 0 25 0;
#X connect 16 0 17 1;
#X connect 16 1 18 1;
#X connect 16 2 19 1;
#X connect 16 3 20 1;
#X connect 16 4 21 1;
#X connect 16 5 22 1;
#X connect 16 6 23 1;
#X connect 16 7 24 1;
#X connect 16 8 47 1;
#X connect 16 9 48 1;
#X connect 16 10 49 1;
#X connect 16 11 50 1;
#X connect 17 0 11 0;
#X connect 17 0 51 0;
#X connect 18 0 13 0;
#X connect 18 0 51 1;
#X connect 19 0 31 0;
#X connect 19 0 51 2;
#X connect 20 0 33 0;
#X connect 20 0 51 3;
#X connect 21 0 35 0;
#X connect 21 0 51 4;
#X connect 22 0 37 0;
#X connect 22 0 51 5;
#X connect 23 0 39 0;
#X connect 23 0 51 6;
#X connect 24 0 41 0;
#X connect 24 0 51 7;
#X connect 31 0 32 0;
#X connect 32 0 26 0;
#X connect 33 0 34 0;
#X connect 34 0 27 0;
#X connect 35 0 36 0;
#X connect 36 0 28 0;
#X connect 37 0 38 0;
#X connect 38 0 29 0;
#X connect 39 0 40 0;
#X connect 40 0 30 0;
#X connect 41 0 42 0;
#X connect 42 0 44 0;
#X connect 43 0 16 0;
#X connect 47 0 51 8;
#X connect 47 0 52 0;
#X connect 48 0 51 9;
#X connect 48 0 54 0;
#X connect 49 0 51 10;
#X connect 49 0 56 0;
#X connect 50 0 51 11;
#X connect 50 0 58 0;
#X connect 52 0 53 0;
#X connect 53 0 60 0;
#X connect 54 0 55 0;
#X connect 55 0 45 0;
#X connect 56 0 57 0;
#X connect 57 0 46 0;
#X connect 58 0 59 0;
#X connect 59 0 15 0;
#X connect 61 0 16 1;
#X connect 62 0 51 0;
#X connect 62 0 11 0;
#X connect 63 0 51 1;
#X connect 63 0 13 0;
#X connect 64 0 51 2;
#X connect 64 0 31 0;
#X connect 65 0 51 3;
#X connect 65 0 33 0;
#X connect 66 0 51 4;
#X connect 66 0 35 0;
#X connect 67 0 51 5;
#X connect 67 0 37 0;
#X connect 68 0 51 6;
#X connect 68 0 39 0;
#X connect 69 0 51 7;
#X connect 69 0 41 0;
#X connect 70 0 51 8;
#X connect 70 0 52 0;
#X connect 71 0 51 9;
#X connect 71 0 54 0;
#X connect 72 0 51 10;
#X connect 72 0 56 0;
#X connect 73 0 51 11;
#X connect 73 0 58 0;
#X connect 75 0 2 0;
#X coords 0 -1 1 1 596 278 1 0 0;
#X restore 741 1381 pd output;
#X f 60;
#N canvas 1325 49 489 779 delay 0;
#X obj 27 264 inlet~;
#X obj 27 742 outlet~;
#X obj 63 656 s~ delay_feedback_L, f 16;
#X obj 79 289 r~ delay_feedback_L, f 16;
#X msg 349 403 1, f 1;
#X floatatom 349 427 2 0 0 0 - - - 0;
#X obj 326 375 loadbang;
#X obj 292 462 clip;
#X floatatom 326 428 2 0 0 0 - - - 0;
#X msg 326 404 0, f 1;
#X obj 160 374 loadbang;
#X obj 160 398 tgl 19 0 empty empty empty 0 -10 0 12 #fcfcfc #000000 #000000 0 1;
#X obj 160 461 f;
#X obj 160 422 metro 1000, f 5;
#X obj 42 545 delread~ audio-buffer-L 0, f 14;
#X msg 184 398 1000;
#X floatatom 172 484 5 0 0 0 - - - 0;
#X floatatom 292 486 5 0 0 0 - - - 0;
#X obj 39 339 delwrite~ audio-buffer-L 5000, f 14;
#X obj 30 92 vsl 30 80 0 1000 0 0 empty empty empty 0 -9 0 12 #fcfcfc #000000 #000000 0 1;
#X floatatom 30 187 4 0 0 0 - - - 16;
#X obj 268 386 line;
#X msg 266 362 \$1 250;
#X text 262 282 feedback;
#X obj 265 298 r handdistrh;
#X obj 63 628 *~;
#X obj 43 704 *~;
#X obj 84 91 vsl 30 80 0 1 0 0 empty empty empty 0 -9 0 12 #feffc6 #000000 #000000 0 1;
#X text 28 69 time;
#X text 79 69 feedb;
#X floatatom 84 187 4 0 0 0 - - - 16;
#X obj 175 151 r deltime;
#X connect 0 0 1 0;
#X connect 0 0 18 0;
#X connect 3 0 18 0;
#X connect 4 0 5 0;
#X connect 5 0 7 2;
#X connect 6 0 4 0;
#X connect 6 0 9 0;
#X connect 7 0 17 0;
#X connect 8 0 7 1;
#X connect 9 0 8 0;
#X connect 10 0 11 0;
#X connect 10 0 15 0;
#X connect 11 0 13 0;
#X connect 12 0 14 0;
#X connect 12 0 16 0;
#X connect 13 0 12 0;
#X connect 14 0 25 0;
#X connect 14 0 26 0;
#X connect 15 0 13 1;
#X connect 17 0 25 1;
#X connect 17 0 26 1;
#X connect 19 0 20 0;
#X connect 19 0 12 1;
#X connect 21 0 7 0;
#X connect 22 0 21 0;
#X connect 24 0 22 0;
#X connect 24 0 27 0;
#X connect 25 0 2 0;
#X connect 26 0 1 0;
#X connect 27 0 30 0;
#X connect 31 0 19 0;
#X coords 0 -1 1 1 139 195 1 0 50;
#X restore 11 196 pd delay;
#X f 23;
#N canvas 141 512 839 374 input 0;
#X obj 27 44 vsl 19 80 0 5 0 0 empty empty empty 0 -9 0 12 #fcfcfc #000000 #000000 0 1;
#X obj 296 132 tgl 19 0 empty empty empty 0 -10 0 12 #fcfcfc #000000 #000000 0 1;
#X obj 296 107 loadbang;
#X obj 261 198 tabwrite~ input-array;
#X obj 373 165 bng 19 250 50 0 empty empty empty 0 -10 0 12 #fcfcfc #000000 #000000;
#N canvas 32 32 450 250 (subpatch) 0;
#X array input-array 1000 float 2;
#X coords 0 0.75 1000 -0.75 93 85 1 0 0;
#X restore 54 42 graph;
#X obj 211 230 outlet~;
#X obj 537 82 vu 19 200 empty empty -1 -10 0 12 #404040 #000000 1 0;
#X obj 432 36 env~;
#X obj 432 60 - 95;
#X obj 208 47 adc~;
#X floatatom 27 163 5 0 0 0 - - - 0;
#X obj 279 157 metro 100;
#X obj 209 149 *~;
#X connect 0 0 11 0;
#X connect 0 0 13 1;
#X connect 1 0 12 0;
#X connect 2 0 1 0;
#X connect 4 0 3 0;
#X connect 8 0 9 0;
#X connect 9 0 7 0;
#X connect 10 0 13 0;
#X connect 12 0 3 0;
#X connect 13 0 6 0;
#X connect 13 0 8 0;
#X connect 13 0 3 0;
#X coords 0 -1 1 1 176 148 1 0 0;
#X restore 13 14 pd input;
#N canvas 873 148 734 434 test_audio 0;
#N canvas 0 50 450 250 (subpatch) 0;
#X array test_audio1 6.58898e+06 float 0;
#X coords 0 1 6.58898e+06 -1 138 45 1;
#X restore 14 286 graph;
#X obj 203 77 soundfiler;
#X msg 203 53 read -resize test_audio_acapella.wav test_audio1;
#X obj 325 256 tabplay~ test_audio1;
#X obj 14 220 bng 19 250 50 0 empty empty empty 0 -10 0 12 #fcfcfc #000000 #000000;
#X msg 191 230 stop;
#X obj 14 134 bng 19 250 50 0 empty empty empty 0 -10 0 12 #fcfcfc #000000 #000000;
#X msg 209 263 200 108200, f 6;
#X obj 14 195 bng 19 250 50 0 empty empty empty 0 -10 0 12 #fcfcfc #000000 #000000;
#X obj 14 244 bng 19 250 50 0 empty empty empty 0 -10 0 12 #fcfcfc #000000 #000000;
#X text 35 243 stop;
#X text 37 195 play;
#X obj 325 352 outlet~;
#X obj 120 86 s test;
#X floatatom 284 77 15 0 0 0 - - - 0;
#X text 107 87 /;
#X obj 14 158 bng 19 250 50 0 empty empty empty 0 -10 0 12 #fcfcfc #000000 #000000;
#X text 36 135 load audio 1;
#X text 36 159 load audio 2;
#X obj 204 129 soundfiler;
#X floatatom 302 147 15 0 0 0 - - - 0;
#X msg 204 104 read -resize test_audio_phrases.wav test_audio1;
#X msg 209 303 800000 108200, f 6;
#X text 104 222 samples;
#X obj 37 220 bng 19 250 50 0 empty empty empty 0 -10 0 12 #fcfcfc #000000 #000000;
#X msg 210 344 1.55e+06 108200, f 8;
#X obj 61 220 bng 19 250 50 0 empty empty empty 0 -10 0 12 #fcfcfc #000000 #000000;
#X obj 85 220 bng 19 250 50 0 empty empty empty 0 -10 0 12 #fcfcfc #000000 #000000;
#X msg 211 381 2e+06 160200, f 8;
#X obj 270 221 metro;
#X msg 356 218 0;
#X obj 302 171 /;
#X obj 333 171 r sr;
#X obj 302 195 * 1000;
#X floatatom 260 198 5 0 0 0 - - - 0;
#X connect 1 0 14 0;
#X connect 1 0 20 0;
#X connect 2 0 1 0;
#X connect 3 0 12 0;
#X connect 4 0 7 0;
#X connect 5 0 3 0;
#X connect 5 0 30 0;
#X connect 6 0 2 0;
#X connect 7 0 3 0;
#X connect 8 0 3 0;
#X connect 8 0 29 0;
#X connect 8 0 20 0;
#X connect 9 0 5 0;
#X connect 16 0 21 0;
#X connect 19 0 20 0;
#X connect 20 0 31 0;
#X connect 21 0 19 0;
#X connect 22 0 3 0;
#X connect 24 0 22 0;
#X connect 25 0 3 0;
#X connect 26 0 25 0;
#X connect 27 0 28 0;
#X connect 28 0 3 0;
#X connect 29 0 3 0;
#X connect 30 0 29 1;
#X connect 31 0 33 0;
#X connect 32 0 31 1;
#X connect 33 0 29 1;
#X connect 33 0 34 0;
#X coords 0 -1 1 1 164 171 1 0 100;
#X restore 195 14 pd test_audio;
#X obj 300 251 s wake;
#X obj 350 209 bng 38 250 50 0 empty empty empty 0 -10 0 12 #fcfcfc #000000 #000000;
#X obj 300 209 bng 38 250 50 0 empty empty empty 0 -10 0 12 #fcfcfc #000000 #000000;
#X msg 1397 69 \; pd dsp \$1;
#X obj 1397 42 tgl 19 0 empty empty empty 17 7 0 10 #dfdfdf #000000 #000000 0 1;
#X text 1419 41 DSP on/off;
#X obj 1507 94 s sr;
#X msg 1521 70 22050;
#X msg 1507 43 44100;
#N canvas 1081 263 623 575 controls 0;
#X obj 98 77 vsl 30 80 0 1 0 0 empty empty neck\ \ \ \ fold -45 10 0 16 #c7c6ff #000000 #000000 0 1;
#X obj 35 459 tgl 45 0 empty empty left\ pedal -25 -12 0 16 #6affff #000000 #000000 0 1;
#X obj 142 460 tgl 45 0 empty empty right\ pedal -22 -12 0 16 #ffa851 #000000 #000000 0 1;
#X obj 38 35 hsl 150 30 -1 1 0 0 empty empty head\ angle 25 15 0 16 #ffc7c6 #000000 #000000 0 1;
#X obj 8 175 hsl 200 30 0 1 0 0 empty empty hand\ distance\ L-up 10 15 0 16 #c6ffc7 #000000 #000000 0 1;
#X obj 278 74 r headrot;
#X obj 276 120 r handdistlh;
#X obj 28 212 hsl 200 30 0 1 0 0 empty empty hand\ distance\ R-up 10 15 0 16 #feffc6 #000000 #000000 0 1;
#X obj 278 168 r handdistrh;
#X obj 270 351 r leftfoot;
#X obj 271 379 r rightfoot;
#X obj 283 237 r headfold;
#X obj 284 260 r spinefold;
#X obj 98 257 vsl 30 150 0 1 0 0 empty empty empty 0 -9 0 12 #e4d7cb #000000 #000000 0 1;
#X connect 5 0 3 0;
#X connect 6 0 4 0;
#X connect 8 0 7 0;
#X connect 9 0 1 0;
#X connect 10 0 2 0;
#X connect 11 0 0 0;
#X connect 12 0 13 0;
#X coords 0 -1 1 1 249 550 1 0 0;
#X restore 1142 13 pd controls;
#N canvas 1267 81 508 694 reverb 0;
#X obj 140 50 tgl 30 0 empty rev_bypass_set empty 17 7 0 10 #fcfcfc #000000 #000000 0 1;
#X floatatom 32 153 4 0 0 0 - - - 16;
#X obj 32 52 vsl 30 90 0 10 0 0 empty empty empty 0 -9 0 10 #fcfcfc #000000 #000000 0 1;
#X text 135 29 Bypass;
#X obj 213 23 loadbang;
#X obj 13 339 inlet~;
#X obj 13 603 outlet~;
#X obj 67 399 rev1~, f 6;
#X text 28 27 Decay;
#X obj 145 106 bng 19 250 50 0 empty empty empty 0 -10 0 12 #fcfcfc #000000 #000000;
#X text 135 86 Clear;
#X obj 67 478 *~;
#X obj 66 525 *~;
#X obj 163 478 != 1;
#X obj 13 479 *~ 0.5;
#X floatatom 82 153 4 0 0 0 - - - 16;
#X obj 82 51 vsl 30 90 0 1 0 0 empty empty empty 0 -9 0 10 #806d98 #000000 #000000 0 1;
#X text 73 27 Dry/Wet;
#X msg 213 47 5;
#X obj 160 334 r headfold;
#X obj 286 334 r spinefold;
#X obj 16 206 hsl 162 19 0 1 0 0 empty empty empty -2 -10 0 12 #fcfcfc #000000 #000000 0 1;
#X obj 189 280 - 1;
#X obj 189 304 * -1;
#X floatatom 4 232 5 0 0 0 - - - 12;
#X obj 268 362 *;
#X obj 221 142 loadbang;
#X msg 221 169 0.8;
#X floatatom 143 237 5 0 0 0 - - - 0;
#X obj 237 362 *;
#X obj 237 394 +;
#X floatatom 254 422 5 0 0 0 - - - 0;
#X text 148 184 spine;
#X text 1 183 head;
#X connect 0 0 13 0;
#X connect 1 0 7 1;
#X connect 2 0 1 0;
#X connect 4 0 18 0;
#X connect 5 0 7 0;
#X connect 5 0 14 0;
#X connect 7 0 11 0;
#X connect 9 0 7 2;
#X connect 11 0 12 0;
#X connect 12 0 6 0;
#X connect 13 0 12 1;
#X connect 14 0 6 0;
#X connect 16 0 15 0;
#X connect 18 0 2 0;
#X connect 19 0 29 0;
#X connect 20 0 25 0;
#X connect 21 0 22 0;
#X connect 21 0 28 0;
#X connect 21 0 25 1;
#X connect 22 0 23 0;
#X connect 23 0 24 0;
#X connect 23 0 29 1;
#X connect 25 0 30 1;
#X connect 26 0 27 0;
#X connect 27 0 21 0;
#X connect 29 0 30 0;
#X connect 30 0 31 0;
#X connect 31 0 11 1;
#X connect 31 0 16 0;
#X coords 0 -1 1 1 196 234 1 0 0;
#X restore 15 405 pd reverb;
#N canvas 574 120 493 519 tremolo 0;
#X obj 45 258 osc~;
#X obj 15 399 *~;
#X obj 45 287 +~ 1;
#X obj 45 311 /~ 2;
#X obj 45 342 *~ 0.6;
#X obj 45 369 +~ 0.2;
#X obj 98 287 - 1;
#X obj 98 311 * -1;
#X obj 98 342 / 2;
#X obj 91 120 r handdistlh;
#X obj 16 151 inlet~;
#X msg 84 258 0.5;
#X obj 89 231 loadbang, f 9;
#X obj 21 44 vsl 40 80 0 1 0 0 empty empty empty 0 -9 0 12 #c6ffc7 #000000 #000000 0 1;
#X obj 15 446 outlet~;
#X obj 91 146 * 12;
#X text 18 22 period;
#X connect 0 0 2 0;
#X connect 1 0 14 0;
#X connect 2 0 3 0;
#X connect 3 0 4 0;
#X connect 4 0 5 0;
#X connect 5 0 1 1;
#X connect 6 0 7 0;
#X connect 7 0 8 0;
#X connect 8 0 5 1;
#X connect 9 0 13 0;
#X connect 9 0 15 0;
#X connect 10 0 1 0;
#X connect 11 0 4 1;
#X connect 11 0 6 0;
#X connect 12 0 11 0;
#X connect 15 0 0 0;
#X coords 0 -1 1 1 85 144 1 0 0;
#X restore 196 207 pd tremolo;
#X obj 351 276 bng 38 250 50 0 empty empty empty 0 -10 0 12 #fcfcfc #000000 #000000;
#X obj 301 277 bng 38 250 50 0 empty empty empty 0 -10 0 12 #fcfcfc #000000 #000000;
#X obj 301 319 s listen, f 6;
#X obj 351 319 s disconnect, f 10;
#X obj 1572 201 key;
#X obj 1672 189 keyup;
#X floatatom 1756 224 5 0 0 0 - - - 0;
#X obj 1532 330 s leftfoot;
#X obj 1678 328 s rightfoot;
#X msg 1581 267 1;
#X msg 1682 256 0;
#X floatatom 1634 233 5 0 0 0 - - - 0;
#X obj 1560 234 sel 9 32;
#X obj 1686 223 sel 9 32;
#X msg 1541 268 1;
#X msg 1719 255 0;
#X obj 1505 311 tgl 19 0 empty empty empty 0 -10 0 12 #fcfcfc #000000 #000000 0 1;
#X obj 1641 322 tgl 19 0 empty empty empty 0 -10 0 12 #fcfcfc #000000 #000000 0 1;
#X obj 1524 166 tgl 19 0 empty empty empty 0 -10 0 12 #fcfcfc #000000 #000000 0 1;
#X obj 1551 135 tgl 50 0 empty empty empty 0 -10 0 12 #fcfcfc #000000 #000000 0 1;
#X obj 350 251 s kill;
#X obj 1397 119 vsl 30 150 2 12 0 0 empty empty empty 0 -9 0 12 #fcfcfc #000000 #000000 0 1;
#X obj 1397 277 int;
#X floatatom 1397 301 5 0 0 0 - - - 16;
#X obj 1397 329 s loopsec;
#X msg 1431 141 4, f 2;
#X obj 1431 117 loadbang;
#X obj 372 47 tgl 53 0 empty rightfoot rec 12 25 0 16 #ffa239 #000000 #000000 0 1;
#X obj 372 110 tgl 53 0 empty leftfoot clear 2 25 0 16 #00faff #000000 #000000 0 1;
#N canvas 56 251 825 521 bandpass 0;
#X obj 317 180 bp~, f 8;
#X obj 319 12 inlet~;
#X msg 344 62 3;
#X obj 344 38 loadbang;
#X obj 87 48 vsl 40 80 0 10000 0 0 empty empty empty 0 -9 0 12 #806d98 #000000 #000000 0 1;
#X obj 147 47 vsl 40 80 0 10 0 0 empty empty empty 0 -9 0 12 #fcfcfc #000000 #000000 0 1;
#X text 161 24 Q;
#X floatatom 87 136 5 0 0 0 - - - 16;
#X floatatom 147 135 4 0 0 0 - - - 16;
#X obj 337 146 * 8000;
#X obj 27 322 r headfold;
#X obj 153 322 r spinefold;
#X obj 16 188 hsl 162 19 0 1 0 0 empty empty empty -2 -10 0 12 #fcfcfc #000000 #000000 0 1;
#X obj 56 268 - 1;
#X obj 56 292 * -1;
#X floatatom 7 237 5 0 0 0 - - - 12;
#X obj 135 350 *;
#X obj 230 47 loadbang;
#X msg 230 74 0.8;
#X floatatom 210 233 5 0 0 0 - - - 0;
#X obj 104 350 *;
#X obj 105 394 +;
#X floatatom 133 429 5 0 0 0 - - - 0;
#X text 148 166 spine;
#X text 1 165 head;
#X obj 77 431 t b f;
#X obj 62 456 -;
#X obj 37 383 loadbang;
#X msg 37 407 1;
#X obj 401 193 lop~;
#X obj 363 323 outlet~;
#X msg 395 126 clear;
#X obj 26 48 vsl 40 80 0 2000 0 0 empty empty empty 0 -9 0 12 #806d98 #000000 #000000 0 1;
#X floatatom 26 136 5 0 0 0 - - - 16;
#X obj 415 159 * 2000;
#X obj 388 60 r headfold;
#X text 14 21 lp freq;
#X text 80 22 bp freq;
#X obj 388 84 * 5.5;
#X connect 0 0 30 0;
#X connect 1 0 0 0;
#X connect 1 0 29 0;
#X connect 2 0 5 0;
#X connect 3 0 2 0;
#X connect 4 0 7 0;
#X connect 5 0 8 0;
#X connect 9 0 0 1;
#X connect 9 0 4 0;
#X connect 10 0 20 0;
#X connect 11 0 16 0;
#X connect 12 0 13 0;
#X connect 12 0 19 0;
#X connect 12 0 16 1;
#X connect 13 0 14 0;
#X connect 14 0 15 0;
#X connect 14 0 20 1;
#X connect 16 0 21 1;
#X connect 17 0 18 0;
#X connect 18 0 12 0;
#X connect 20 0 21 0;
#X connect 21 0 22 0;
#X connect 21 0 25 0;
#X connect 25 0 26 0;
#X connect 25 1 26 1;
#X connect 26 0 9 0;
#X connect 26 0 34 0;
#X connect 27 0 28 0;
#X connect 28 0 26 0;
#X connect 29 0 30 0;
#X connect 31 0 29 0;
#X connect 32 0 33 0;
#X connect 34 0 29 1;
#X connect 34 0 32 0;
#X connect 35 0 38 0;
#X connect 38 0 5 0;
#X connect 38 0 0 2;
#X coords 0 -1 1 1 206 220 1 0 0;
#X restore 228 380 pd bandpass;
#N canvas 0 70 1540 800 receive 0;
#X obj 34 40 route list;
#X obj 22 11 r msg;
#X obj 1155 118 oscparse;
#X obj 1156 90 netreceive -u -b;
#X msg 1253 53 disconnect;
#X obj 1163 143 s msg;
#X obj 1148 26 r listen;
#X obj 1248 25 r disconnect;
#X msg 1156 52 listen 8001;
#X floatatom 693 159 6 0 0 0 - - - 16;
#X floatatom 782 159 6 0 0 0 - - - 16;
#X floatatom 605 158 6 0 0 0 - - - 16;
#X floatatom 872 160 6 0 0 0 - - - 16;
#X floatatom 951 160 6 0 0 0 - - - 16;
#X floatatom 330 637 6 0 0 0 - - - 16;
#X floatatom 402 637 6 0 0 0 - - - 16;
#X text 328 615 leftpedal;
#X text 401 616 rightpedal;
#X floatatom 522 157 6 0 0 0 - - - 16;
#X text 521 136 headrot;
#X text 604 135 neckfold;
#X text 688 138 handdistlh;
#X text 781 139 handdistrh;
#X text 867 139 spinefold;
#X text 950 140 deltime;
#X obj 34 64 route params;
#X obj 335 570 route headrot neckfold handdistlh handdistrh spinefold deltime;
#X obj 34 89 unpack f f f f f f, f 62;
#X obj 1135 214 line;
#X obj 1135 239 s headrot;
#X obj 1217 214 line;
#X obj 1217 239 s headfold;
#X obj 1301 213 line;
#X obj 1301 238 s handdistlh;
#X obj 1393 214 line;
#X obj 1393 239 s handdistrh;
#X obj 1489 214 line;
#X obj 1489 239 s spinefold;
#X obj 1579 214 line;
#X obj 1579 239 s deltime;
#X obj 1146 314 line;
#X obj 1153 341 s zone;
#X floatatom 694 214 6 0 0 0 - - - 16;
#X floatatom 607 216 6 0 0 0 - - - 16;
#X text 604 195 angleCenter;
#X text 693 191 distCenter;
#X obj 1210 307 line;
#X obj 1307 308 line;
#X obj 1385 89 route list;
#X obj 1376 61 r msg;
#X obj 1385 113 route qom;
#X obj 20 122 route list;
#X floatatom 524 215 6 0 0 0 - - - 16;
#X text 521 194 zone;
#X floatatom 781 215 6 0 0 0 - - - 16;
#X text 780 192 qom;
#X obj 20 146 route ctrl;
#X obj 1392 309 line;
#X obj 1391 333 s qom;
#X obj 1210 332 s angleCenter;
#X obj 1307 333 s distCenter;
#X floatatom 851 214 6 0 0 0 - - - 16;
#X text 850 191 top;
#X obj 20 171 unpack f f f f f, f 24;
#X obj 1456 312 line;
#X obj 1455 336 s top;
#X msg 1469 288 \$1 200;
#X msg 1405 285 \$1 200;
#X msg 1318 284 \$1 200;
#X msg 1230 286 \$1 200;
#X msg 1143 291 \$1 200;
#X msg 1147 191 \$1 200;
#X msg 1213 188 \$1 200;
#X msg 1300 189 \$1 200;
#X msg 1390 188 \$1 200;
#X msg 1479 190 \$1 200;
#X msg 1558 190 \$1 200;
#X obj 1323 123 print;
#X connect 0 0 25 0;
#X connect 1 0 0 0;
#X connect 1 0 51 0;
#X connect 2 0 5 0;
#X connect 3 0 2 0;
#X connect 4 0 3 0;
#X connect 6 0 8 0;
#X connect 7 0 4 0;
#X connect 8 0 3 0;
#X connect 9 0 73 0;
#X connect 10 0 74 0;
#X connect 11 0 72 0;
#X connect 12 0 75 0;
#X connect 13 0 76 0;
#X connect 18 0 71 0;
#X connect 25 0 27 0;
#X connect 27 0 18 0;
#X connect 27 1 11 0;
#X connect 27 2 9 0;
#X connect 27 3 10 0;
#X connect 27 4 12 0;
#X connect 27 5 13 0;
#X connect 28 0 29 0;
#X connect 30 0 31 0;
#X connect 32 0 33 0;
#X connect 34 0 35 0;
#X connect 36 0 37 0;
#X connect 38 0 39 0;
#X connect 40 0 41 0;
#X connect 42 0 68 0;
#X connect 43 0 69 0;
#X connect 46 0 59 0;
#X connect 47 0 60 0;
#X connect 48 0 50 0;
#X connect 49 0 48 0;
#X connect 51 0 56 0;
#X connect 52 0 41 0;
#X connect 54 0 67 0;
#X connect 56 0 63 0;
#X connect 57 0 58 0;
#X connect 61 0 66 0;
#X connect 63 0 52 0;
#X connect 63 1 43 0;
#X connect 63 2 42 0;
#X connect 63 3 54 0;
#X connect 63 4 61 0;
#X connect 64 0 65 0;
#X connect 66 0 64 0;
#X connect 67 0 57 0;
#X connect 68 0 47 0;
#X connect 69 0 46 0;
#X connect 70 0 40 0;
#X connect 71 0 28 0;
#X connect 72 0 30 0;
#X connect 73 0 32 0;
#X connect 74 0 34 0;
#X connect 75 0 36 0;
#X connect 76 0 38 0;
#X coords 0 800 1 799 538 173 0;
#X restore 21 813 pd receive;
#X f 7;
#X obj 1507 16 loadbang;
#X obj 750 997 granular;
#X obj 699 990 bng 19 250 50 0 empty empty empty 0 -10 0 12 #fcfcfc #000000 #000000;
#X floatatom 728 894 5 0 0 0 - - - 0;
#X floatatom 775 803 5 0 0 0 - - - 0;
#X floatatom 805 827 5 0 0 0 - - - 0;
#X obj 965 987 bng 19 250 50 0 empty empty empty 0 -10 0 12 #fcfcfc #000000 #000000;
#X floatatom 953 925 6 0 0 0 - - - 0;
#X floatatom 986 835 5 0 0 0 - - - 0;
#X floatatom 1033 837 5 0 0 0 - - - 0;
#X obj 1012 985 granular2;
#X obj 801 1026 *~;
#X obj 1012 1027 *~;
#X obj 1315 1182 r distCenter;
#X obj 1216 1158 r angleCenter;
#X obj 801 744 line;
#X msg 801 719 \$1 500;
#X obj 892 736 + 1;
#X obj 1128 745 t b f;
#X obj 1117 773 -;
#X obj 1062 719 loadbang;
#X msg 1125 955 \$1 500;
#X msg 1062 743 7;
#X obj 953 874 /;
#X obj 728 845 /;
#X obj 901 1306 arrayspsig, f 23;
#X obj 980 1170 r angleCenter;
#X obj 803 149 s leftfoot;
#X obj 677 173 s rightfoot;
#X obj 677 38 < 0.1;
#X obj 477 38 hsl 162 19 0 1 0 0 empty empty empty -2 -10 0 12 #fcfcfc #000000 #000000 0 1;
#X obj 474 62 s qomt;
#X obj 455 94 r loopStart;
#X obj 557 160 spigot;
#X obj 519 195 tgl 19 0 empty empty empty 0 -10 0 12 #fcfcfc #000000 #000000 0 1;
#X obj 600 191 r loopTime;
#X obj 564 191 del;
#X msg 767 139 0;
#X msg 677 127 1;
#X obj 676 61 change;
#X obj 766 112 del 500;
#X obj 686 89 select 1;
#X obj 677 14 r qom;
#X obj 677 151 bng 19 250 50 0 empty empty empty 0 -10 0 12 #fcfcfc #000000 #000000;
#X obj 684 941 loadbang;
#X obj 938 954 loadbang;
#X obj 743 693 r top;
#X obj 980 1194 - 1;
#X obj 980 1218 * -1;
#X obj 819 943 *;
#X obj 831 907 t b f;
#X obj 1115 687 / 8;
#X obj 881 706 r zone;
#X obj 474 1264 bng 19 250 50 0 empty empty empty 0 -10 0 12 #fcfcfc #000000 #000000;
#X floatatom 509 1128 5 0 0 0 - - - 0;
#X floatatom 558 1025 5 0 0 0 - - - 0;
#X floatatom 586 1052 5 0 0 0 - - - 0;
#X obj 582 1295 *~;
#X obj 526 1065 /, f 4;
#X obj 472 1207 loadbang;
#X obj 600 1191 *;
#X obj 633 1158 t b f;
#X obj 600 1158 / 5;
#X obj 630 1331 arrayspsig, f 23;
#X obj 715 1261 t b f;
#X obj 702 1293 -;
#X obj 715 1235 int;
#X obj 624 1076 > 2;
#X obj 656 1076 < 5;
#X obj 656 1100 t b f;
#X obj 624 917 + 1;
#X obj 524 1265 granular3;
#X floatatom 649 1196 5 0 0 0 - - - 0;
#X obj 633 1131 &&;
#X obj 702 1125 r angleCenter;
#X obj 801 694 * 1.5;
#X obj 346 981 r qom;
#X obj 953 898 / 4;
#X obj 614 887 r zone;
#X floatatom 347 1129 10 0 0 0 - - - 0;
#X obj 346 1030 - 1;
#X obj 346 1054 * -1;
#X obj 466 1103 clip 100 700;
#X obj 466 1079 * 1000;
#X msg 599 1229 \$1 800;
#X obj 527 1153 *;
#X obj 558 960 * 1000;
#X floatatom 482 1176 5 0 0 0 - - - 0;
#X obj 346 1005 * 3.25;
#X obj 599 1263 vline~;
#X obj 1243 858 osc~;
#X obj 1307 842 osc~;
#X obj 1303 764 / 2;
#X msg 1303 788 \$1 500;
#X obj 1303 812 vline~;
#X msg 1241 800 \$1 500;
#X obj 1241 824 vline~;
#X obj 1223 689 + 150;
#X msg 1585 94 11025;
#X obj 1451 822 cyclone/pink~;
#X obj 1451 902 vcf~;
#X obj 1480 847 loadbang;
#X floatatom 1275 690 5 0 0 0 - - - 0;
#X obj 1108 618 r zone;
#X obj 349 1080 clip 0.05 1;
#X obj 986 755 * 2000;
#X obj 728 869 / 2;
#X obj 1369 722 / 2;
#X msg 1369 746 \$1 500;
#X obj 1369 770 vline~;
#X obj 1369 795 phasor~;
#X obj 1349 953 osc~;
#X obj 1123 866 *;
#X obj 1168 820 t b f;
#X obj 1477 418 metro 4000;
#X obj 1477 394 loadbang;
#X msg 1477 442 1;
#X msg 1511 466 0;
#X obj 1511 442 del 50;
#X obj 819 995 vline~;
#X floatatom 852 943 5 0 0 0 - - - 0;
#X obj 68 1349 vu 30 80 empty empty -1 -10 0 12 #404040 #000000 0 0;
#X obj 109 1386 env~;
#X obj 109 1412 - 95;
#X obj 1125 984 vline~;
#X obj 1115 648 + 1;
#X obj 121 1180 bng 19 250 50 0 empty empty empty 0 -10 0 12 #fcfcfc #000000 #000000;
#X floatatom 112 1099 10 0 0 0 - - - 0;
#X floatatom 186 987 5 0 0 0 - - - 0;
#X floatatom 216 1011 5 0 0 0 - - - 0;
#X obj 212 1225 *~;
#X msg 230 1154 \$1 1000;
#X obj 139 1029 /;
#X obj 93 1137 loadbang;
#X obj 230 1127 *;
#X obj 230 1179 vline~;
#X floatatom 279 1130 5 0 0 0 - - - 0;
#X obj 150 1181 granular4;
#X obj 702 1203 +;
#X obj 729 1175 r qom;
#X obj 702 1151 * 1.5;
#X text 1019 965 hang;
#X text 752 976 hello;
#X text 524 1243 epic;
#X text 154 1160 whisper;
#X floatatom 989 1242 5 0 0 0 - - - 0;
#X floatatom 747 1297 5 0 0 0 - - - 0;
#X floatatom 1216 1182 5 0 0 0 - - - 0;
#X obj 423 171 loadbang;
#X floatatom 1315 1206 5 0 0 0 - - - 0;
#X obj 1223 663 * 10;
#X msg 819 970 \$1 800;
#X obj 1117 828 *;
#X obj 1168 793 > 3;
#X floatatom 62 1059 9 0 0 0 - - - 0;
#X obj 1668 805 loadbang;
#X obj 1739 965 vline~;
#X obj 1709 941 bng 19 250 50 0 empty empty empty 0 -10 0 12 #fcfcfc #000000 #000000;
#X obj 1713 893 bng 19 250 50 0 empty empty empty 0 -10 0 12 #fcfcfc #000000 #000000;
#X obj 1270 1004 *~;
#X obj 1416 962 bng 19 250 50 0 empty empty empty 0 -10 0 12 #fcfcfc #000000 #000000;
#X msg 1416 986 0;
#X obj 1349 977 *~ 0.5;
#X obj 1269 1051 rev2~ 100 90 3000 20;
#X obj 1243 882 *~ 0.025;
#X obj 1308 866 *~ 0.0125;
#X obj 1369 819 *~ 0.005;
#X msg 1480 874 4;
#X obj 1454 925 *~ 0.4;
#X obj 1595 1136 osc~;
#X obj 1592 1108 *~;
#X obj 1461 1022 vline~;
#X obj 1621 1192 *~;
#X obj 1739 989 pow~ 1;
#X msg 1739 940 1.1 50 \, 0 100 100;
#X obj 1461 1045 pow~ 1.25;
#X msg 1461 993 1.2 10 \, 1 4 10 \, 0.8 8 14 \, 1 4 196;
#X obj 1349 1001 +~ 0.6;
#X obj 1774 799 metro 3000;
#X floatatom 1774 847 5 0 0 0 - - - 0;
#X floatatom 1785 917 5 0 0 0 - - - 0;
#X obj 1628 1269 rev2~ 100 92 3000 20;
#X obj 1611 1062 vline~;
#X floatatom 1386 914 5 0 0 0 - - - 0;
#X obj 1353 915 / 6;
#X msg 1611 1038 \$1 2000;
#X floatatom 290 1093 5 0 0 0 - - - 0;
#X obj 273 1062 t b f;
#X obj 296 1004 t b f;
#X obj 273 1035 &&;
#X obj 185 924 /;
#X obj 166 845 loadbang;
#X obj 435 1348 vu 30 80 empty empty -1 -10 0 12 #404040 #000000 0 0;
#X obj 474 1367 env~;
#X obj 474 1393 - 95;
#X obj 717 1034 vu 30 80 empty empty -1 -10 0 12 #404040 #000000 0 0;
#X obj 759 1029 env~;
#X obj 759 1055 - 95;
#X obj 912 1004 vu 30 80 empty empty -1 -10 0 12 #404040 #000000 0 0;
#X obj 958 1033 env~;
#X obj 958 1059 - 95;
#X obj 1572 1281 vu 30 80 empty empty -1 -10 0 12 #404040 #000000 0 0;
#X obj 1618 1310 env~;
#X obj 1618 1336 - 95;
#X text 1658 1305 drop;
#X obj 1227 1067 vu 30 80 empty empty -1 -10 0 12 #404040 #000000 0 0;
#X obj 1273 1096 env~;
#X obj 1273 1122 - 95;
#X text 1313 1091 swoosh;
#X obj 296 980 < 6;
#X obj 265 980 > 4;
#X obj 986 784 / 2.25;
#X obj 831 880 < 3;
#X obj 1117 797 / 4;
#X floatatom 1138 890 5 0 0 0 - - - 0;
#X msg 169 885 1100;
#X obj 141 1064 / 1.6;
#X obj 1740 916 metro;
#X obj 1774 823 random 2000;
#X obj 1775 878 + 3000;
#X obj 1611 1087 *~ 6.5;
#X msg 1597 47 \; pd dsp 1;
#X obj 1597 19 loadbang;
#X obj 320 1331 s~ input1;
#X obj 5 169 r~ input1;
#X obj 860 1201 s~ input2;
#X obj 82 169 r~ input2;
#X obj 1621 1215 *~ 0.01;
#X obj 212 1249 *~ 2;
#X obj 1270 1028 *~ 0.5;
#X obj 582 1319 *~ 3;
#X obj 496 801 r~ input1;
#X obj 573 801 r~ input2;
#X obj 261 871 t b f;
#X obj 1013 1058 *~ 1.25;
#X obj 801 1051 *~ 2.25;
#X connect 1 0 14 0;
#X connect 5 0 36 0;
#X connect 6 0 4 0;
#X connect 8 0 7 0;
#X connect 11 0 10 0;
#X connect 12 0 10 0;
#X connect 14 0 15 0;
#X connect 15 0 45 0;
#X connect 16 0 19 0;
#X connect 17 0 18 0;
#X connect 20 0 27 0;
#X connect 20 0 28 0;
#X connect 21 0 22 0;
#X connect 21 0 29 0;
#X connect 25 0 24 0;
#X connect 25 0 33 0;
#X connect 26 0 23 0;
#X connect 26 0 32 0;
#X connect 28 0 30 0;
#X connect 28 1 25 0;
#X connect 29 0 26 0;
#X connect 29 1 31 0;
#X connect 30 0 23 0;
#X connect 30 0 32 0;
#X connect 31 0 24 0;
#X connect 31 0 33 0;
#X connect 34 0 23 0;
#X connect 35 0 24 0;
#X connect 37 0 38 0;
#X connect 38 0 39 0;
#X connect 39 0 40 0;
#X connect 41 0 37 0;
#X connect 42 0 41 0;
#X connect 45 0 0 0;
#X connect 47 0 12 0;
#X connect 48 0 58 0;
#X connect 49 0 48 0;
#X connect 50 0 48 1;
#X connect 51 0 71 0;
#X connect 51 0 48 2;
#X connect 52 0 71 1;
#X connect 52 0 48 3;
#X connect 53 0 57 0;
#X connect 54 0 57 1;
#X connect 55 0 57 2;
#X connect 55 0 70 0;
#X connect 56 0 70 1;
#X connect 56 0 57 3;
#X connect 57 0 59 0;
#X connect 58 0 243 0;
#X connect 58 0 282 0;
#X connect 59 0 246 0;
#X connect 59 0 281 0;
#X connect 60 0 0 14;
#X connect 60 0 72 2;
#X connect 60 0 110 2;
#X connect 60 0 196 0;
#X connect 61 0 0 13;
#X connect 61 0 194 0;
#X connect 62 0 56 0;
#X connect 62 0 103 0;
#X connect 62 0 52 0;
#X connect 62 0 176 0;
#X connect 62 0 231 0;
#X connect 63 0 62 0;
#X connect 64 0 152 0;
#X connect 64 0 256 0;
#X connect 64 0 257 0;
#X connect 64 0 259 0;
#X connect 64 0 280 0;
#X connect 65 0 66 0;
#X connect 65 1 66 1;
#X connect 66 0 260 0;
#X connect 67 0 69 0;
#X connect 68 0 171 0;
#X connect 69 0 66 0;
#X connect 70 0 124 0;
#X connect 71 0 153 0;
#X connect 72 0 0 1;
#X connect 72 1 0 2;
#X connect 72 2 0 3;
#X connect 72 3 0 4;
#X connect 72 4 0 5;
#X connect 72 5 0 6;
#X connect 72 6 0 7;
#X connect 72 7 0 8;
#X connect 72 8 0 9;
#X connect 72 9 0 10;
#X connect 72 10 0 11;
#X connect 72 11 0 12;
#X connect 73 0 94 0;
#X connect 76 0 80 1;
#X connect 76 0 86 0;
#X connect 77 0 78 0;
#X connect 80 0 81 0;
#X connect 80 0 83 0;
#X connect 82 0 83 1;
#X connect 83 0 81 0;
#X connect 84 0 75 0;
#X connect 85 0 75 0;
#X connect 85 0 90 0;
#X connect 86 0 88 0;
#X connect 87 0 84 0;
#X connect 88 0 85 0;
#X connect 88 0 87 0;
#X connect 89 0 76 0;
#X connect 91 0 48 0;
#X connect 92 0 57 0;
#X connect 93 0 122 0;
#X connect 93 0 132 1;
#X connect 94 0 95 0;
#X connect 95 0 72 1;
#X connect 95 0 192 0;
#X connect 96 0 198 0;
#X connect 96 0 167 0;
#X connect 97 0 96 0;
#X connect 97 1 96 1;
#X connect 98 0 65 0;
#X connect 99 0 64 0;
#X connect 100 0 118 0;
#X connect 101 0 132 0;
#X connect 102 0 105 0;
#X connect 102 0 118 2;
#X connect 103 0 105 1;
#X connect 103 0 118 3;
#X connect 104 0 240 0;
#X connect 104 0 277 0;
#X connect 106 0 118 0;
#X connect 107 0 131 0;
#X connect 108 0 107 0;
#X connect 108 1 107 1;
#X connect 108 1 119 0;
#X connect 110 0 0 1;
#X connect 110 1 0 2;
#X connect 110 2 0 3;
#X connect 110 3 0 4;
#X connect 110 4 0 5;
#X connect 110 5 0 6;
#X connect 110 6 0 7;
#X connect 110 7 0 8;
#X connect 110 8 0 9;
#X connect 110 9 0 10;
#X connect 110 10 0 11;
#X connect 110 11 0 12;
#X connect 111 0 112 0;
#X connect 111 1 112 1;
#X connect 112 0 110 1;
#X connect 112 0 193 0;
#X connect 113 0 111 0;
#X connect 114 0 120 0;
#X connect 115 0 116 0;
#X connect 116 0 120 0;
#X connect 116 1 120 1;
#X connect 117 0 115 0;
#X connect 117 0 114 0;
#X connect 117 0 109 0;
#X connect 117 0 133 0;
#X connect 118 0 104 0;
#X connect 120 0 108 0;
#X connect 121 0 187 0;
#X connect 122 0 63 0;
#X connect 123 0 135 0;
#X connect 124 0 54 0;
#X connect 125 0 117 0;
#X connect 127 0 128 0;
#X connect 128 0 151 0;
#X connect 129 0 101 0;
#X connect 130 0 129 0;
#X connect 131 0 136 0;
#X connect 132 0 134 0;
#X connect 132 0 118 1;
#X connect 133 0 102 0;
#X connect 135 0 127 0;
#X connect 136 0 104 1;
#X connect 137 0 211 0;
#X connect 138 0 212 0;
#X connect 139 0 140 0;
#X connect 140 0 141 0;
#X connect 141 0 138 0;
#X connect 142 0 143 0;
#X connect 143 0 137 0;
#X connect 144 0 139 0;
#X connect 144 0 142 0;
#X connect 144 0 149 0;
#X connect 144 0 154 0;
#X connect 144 0 147 1;
#X connect 144 0 232 0;
#X connect 145 0 10 0;
#X connect 146 0 147 0;
#X connect 147 0 215 0;
#X connect 148 0 214 0;
#X connect 150 0 172 0;
#X connect 151 0 126 0;
#X connect 151 0 130 0;
#X connect 151 0 107 0;
#X connect 151 0 96 0;
#X connect 151 0 181 0;
#X connect 151 0 199 0;
#X connect 152 0 51 0;
#X connect 152 0 258 0;
#X connect 153 0 50 0;
#X connect 154 0 155 0;
#X connect 155 0 156 0;
#X connect 156 0 157 0;
#X connect 157 0 213 0;
#X connect 158 0 209 0;
#X connect 159 0 68 0;
#X connect 159 0 261 0;
#X connect 160 0 159 0;
#X connect 160 1 159 1;
#X connect 161 0 163 0;
#X connect 161 0 165 0;
#X connect 162 0 161 0;
#X connect 163 0 23 0;
#X connect 164 0 23 0;
#X connect 165 0 164 0;
#X connect 166 0 58 1;
#X connect 169 0 170 0;
#X connect 170 0 168 0;
#X connect 171 0 59 1;
#X connect 172 0 98 0;
#X connect 172 0 200 0;
#X connect 172 0 197 0;
#X connect 173 0 184 0;
#X connect 174 0 184 1;
#X connect 175 0 179 0;
#X connect 175 0 184 2;
#X connect 176 0 179 1;
#X connect 176 0 184 3;
#X connect 177 0 169 0;
#X connect 177 0 275 0;
#X connect 178 0 182 0;
#X connect 179 0 201 0;
#X connect 179 0 263 0;
#X connect 180 0 184 0;
#X connect 181 0 178 0;
#X connect 181 0 183 0;
#X connect 182 0 177 1;
#X connect 184 0 177 0;
#X connect 185 0 113 0;
#X connect 185 0 112 0;
#X connect 186 0 185 1;
#X connect 187 0 185 0;
#X connect 195 0 17 0;
#X connect 197 0 144 0;
#X connect 198 0 166 0;
#X connect 199 0 159 0;
#X connect 200 0 160 0;
#X connect 202 0 225 0;
#X connect 202 0 264 0;
#X connect 203 0 220 0;
#X connect 204 0 223 0;
#X connect 205 0 264 0;
#X connect 206 0 276 0;
#X connect 207 0 208 0;
#X connect 208 0 158 1;
#X connect 209 0 224 0;
#X connect 210 0 0 0;
#X connect 210 0 253 0;
#X connect 211 0 206 0;
#X connect 212 0 206 0;
#X connect 213 0 206 0;
#X connect 214 0 147 2;
#X connect 215 0 206 0;
#X connect 216 0 219 0;
#X connect 217 0 216 0;
#X connect 218 0 222 0;
#X connect 219 0 274 0;
#X connect 220 0 219 1;
#X connect 221 0 203 0;
#X connect 222 0 217 0;
#X connect 223 0 218 0;
#X connect 224 0 206 1;
#X connect 225 0 265 0;
#X connect 226 0 266 0;
#X connect 228 0 0 0;
#X connect 228 0 249 0;
#X connect 229 0 267 0;
#X connect 231 0 158 0;
#X connect 231 0 230 0;
#X connect 232 0 229 0;
#X connect 234 0 181 0;
#X connect 234 1 181 1;
#X connect 235 0 236 0;
#X connect 235 1 236 1;
#X connect 236 0 234 0;
#X connect 237 0 175 0;
#X connect 238 0 262 0;
#X connect 240 0 241 0;
#X connect 241 0 239 0;
#X connect 243 0 244 0;
#X connect 244 0 242 0;
#X connect 246 0 247 0;
#X connect 247 0 245 0;
#X connect 249 0 250 0;
#X connect 250 0 248 0;
#X connect 253 0 254 0;
#X connect 254 0 252 0;
#X connect 256 0 235 0;
#X connect 257 0 236 0;
#X connect 258 0 55 0;
#X connect 259 0 97 0;
#X connect 260 0 199 1;
#X connect 262 0 237 0;
#X connect 263 0 174 0;
#X connect 264 0 221 0;
#X connect 264 0 204 0;
#X connect 265 0 226 0;
#X connect 266 0 227 0;
#X connect 266 0 264 1;
#X connect 267 0 217 1;
#X connect 269 0 268 0;
#X connect 271 0 1 0;
#X connect 273 0 1 0;
#X connect 274 0 228 0;
#X connect 275 0 270 0;
#X connect 276 0 210 0;
#X connect 277 0 270 0;
#X connect 280 0 237 0;
#X connect 280 1 237 1;
#X connect 281 0 272 0;
#X connect 282 0 272 0;
