#N canvas 97 0 1471 966 12;
#X obj 124 220 - 0;
#X obj 124 244 abs;
#X obj 244 244 abs;
#X obj 355 235 abs;
#X obj 413 240 abs;
#X obj 748 242 abs;
#X obj 841 244 abs;
#X obj 1040 245 abs;
#X obj 124 489 vsl 19 162 0 1 0 0 empty empty empty 0 -9 0 12 #fcfcfc #000000 #000000 0 1;
#X obj 243 485 vsl 19 162 0 1 0 0 empty empty empty 0 -9 0 12 #fcfcfc #000000 #000000 0 1;
#X obj 355 478 vsl 19 162 0 1 0 0 empty empty empty 0 -9 0 12 #fcfcfc #000000 #000000 0 1;
#X obj 437 481 vsl 19 162 0 1 0 0 empty empty empty 0 -9 0 12 #fcfcfc #000000 #000000 0 1;
#X obj 553 486 vsl 19 162 0 1 0 0 empty empty empty 0 -9 0 12 #fcfcfc #000000 #000000 0 1;
#X obj 654 485 vsl 19 162 0 1 0 0 empty empty empty 0 -9 0 12 #fcfcfc #000000 #000000 0 1;
#X obj 752 484 vsl 19 162 0 1 0 0 empty empty empty 0 -9 0 12 #fcfcfc #000000 #000000 0 1;
#X obj 841 486 vsl 19 162 0 1 0 0 empty empty empty 0 -9 0 12 #fcfcfc #000000 #000000 0 1;
#X obj 950 485 vsl 19 162 0 1 0 0 empty empty empty 0 -9 0 12 #fcfcfc #000000 #000000 0 1;
#X obj 1040 487 vsl 19 162 0 1 0 0 empty empty empty 0 -9 0 12 #fcfcfc #000000 #000000 0 1;
#X obj 124 431 + 1;
#X obj 243 426 + 1;
#X obj 437 422 + 1;
#X obj 355 419 + 1;
#X obj 753 426 + 1;
#X obj 844 427 + 1;
#X obj 951 427 + 1;
#X obj 1043 428 + 1;
#X obj 94 50 inlet;
#X obj 124 282 t b f;
#X obj 124 313 min;
#X obj 94 243 abs;
#X obj 242 282 t b f;
#X obj 242 313 min;
#X obj 185 240 abs;
#X obj 355 274 t b f;
#X obj 355 305 min;
#X obj 302 235 abs;
#X obj 94 220 - 1;
#X obj 467 236 abs;
#X obj 467 275 t b f;
#X obj 437 304 min;
#X obj 528 242 abs;
#X obj 552 424 + 1;
#X obj 576 238 abs;
#X obj 572 277 t b f;
#X obj 552 306 min;
#X obj 634 248 abs;
#X obj 655 423 + 1;
#X obj 685 244 abs;
#X obj 685 281 t b f;
#X obj 655 305 min;
#X obj 124 373 clip -0.95 -0.05;
#X obj 244 385 clip -0.95 -0.05;
#X obj 437 388 clip -0.95 -0.05;
#X obj 356 362 clip -0.95 -0.05;
#X obj 655 390 clip -0.95 -0.05;
#X obj 552 365 clip -0.95 -0.05;
#X obj 845 392 clip -0.95 -0.05;
#X obj 754 364 clip -0.95 -0.05;
#X obj 1043 398 clip -0.95 -0.05;
#X obj 789 242 abs;
#X obj 789 281 t b f;
#X obj 769 310 min;
#X obj 889 242 abs;
#X obj 889 281 t b f;
#X obj 862 310 min;
#X obj 951 242 abs;
#X obj 947 362 clip -0.95 -0.05;
#X obj 992 242 abs;
#X obj 992 281 t b f;
#X obj 972 310 min;
#X obj 1084 243 abs;
#X obj 1084 282 t b f;
#X obj 1064 311 min;
#X obj 243 217 - 0.083;
#X obj 355 211 - 0.166;
#X obj 467 212 - 0.249;
#X obj 185 217 - 1.083;
#X obj 302 211 - 1.166;
#X obj 414 212 - 1.249;
#X obj 576 214 - 0.333;
#X obj 524 213 - 1.333;
#X obj 688 220 - 0.417;
#X obj 635 220 - 1.417;
#X obj 748 218 - 1.5;
#X obj 792 218 - 0.5;
#X obj 892 218 - 0.583;
#X obj 840 219 + 0.417;
#X obj 995 218 - 0.667;
#X obj 952 217 + 0.333;
#X obj 1087 219 - 0.75;
#X obj 1041 218 + 0.25;
#X obj 1141 487 vsl 19 162 0 1 0 0 empty empty empty 0 -9 0 12 #fcfcfc #000000 #000000 0 1;
#X obj 1142 429 + 1;
#X obj 1142 244 abs;
#X obj 1138 364 clip -0.95 -0.05;
#X obj 1183 244 abs;
#X obj 1183 283 t b f;
#X obj 1163 312 min;
#X obj 1200 218 - 0.833;
#X obj 1143 219 + 0.166;
#X obj 1258 244 abs;
#X obj 1258 486 vsl 19 162 0 1 0 0 empty empty empty 0 -9 0 12 #fcfcfc #000000 #000000 0 1;
#X obj 1261 427 + 1;
#X obj 1261 397 clip -0.95 -0.05;
#X obj 1318 241 abs;
#X obj 1318 280 t b f;
#X obj 1282 310 min;
#X obj 1321 217 - 0.917;
#X obj 1259 217 + 0.0833;
#X obj 243 338 * -5;
#X obj 355 331 * -5;
#X obj 437 333 * -5;
#X obj 552 335 * -5;
#X obj 655 334 * -5;
#X obj 751 338 * -5;
#X obj 844 338 * -5;
#X obj 944 336 * -5;
#X obj 1043 339 * -5;
#X obj 1135 338 * -5;
#X obj 1261 338 * -5;
#X obj 123 341 * -5;
#X text 914 99 change to divide by 11 values instead of divide by 12;
#X obj 777 57 inlet;
#X obj 777 81 * -10;
#X obj 14 84 inlet~;
#X obj 60 678 *~;
#X obj 70 688 *~;
#X obj 80 698 *~;
#X obj 90 708 *~;
#X obj 100 718 *~;
#X obj 110 728 *~;
#X obj 120 738 *~;
#X obj 130 748 *~;
#X obj 140 758 *~;
#X obj 150 768 *~;
#X obj 160 778 *~;
#X obj 170 788 *~;
#X obj 60 822 outlet~;
#X obj 70 832 outlet~;
#X obj 80 842 outlet~;
#X obj 90 852 outlet~;
#X obj 100 862 outlet~;
#X obj 110 872 outlet~;
#X obj 120 882 outlet~;
#X obj 130 892 outlet~;
#X obj 140 902 outlet~;
#X obj 150 912 outlet~;
#X obj 160 922 outlet~;
#X obj 170 932 outlet~;
#X connect 0 0 1 0;
#X connect 1 0 27 0;
#X connect 2 0 30 0;
#X connect 3 0 33 0;
#X connect 4 0 39 0;
#X connect 5 0 61 0;
#X connect 6 0 64 0;
#X connect 7 0 72 0;
#X connect 18 0 8 0;
#X connect 18 0 125 1;
#X connect 19 0 9 0;
#X connect 19 0 126 1;
#X connect 20 0 11 0;
#X connect 20 0 128 1;
#X connect 21 0 10 0;
#X connect 21 0 127 1;
#X connect 22 0 14 0;
#X connect 22 0 131 1;
#X connect 23 0 15 0;
#X connect 23 0 132 1;
#X connect 24 0 16 0;
#X connect 24 0 133 1;
#X connect 25 0 17 0;
#X connect 25 0 134 1;
#X connect 26 0 36 0;
#X connect 26 0 0 0;
#X connect 26 0 73 0;
#X connect 26 0 75 0;
#X connect 26 0 76 0;
#X connect 26 0 74 0;
#X connect 26 0 77 0;
#X connect 26 0 78 0;
#X connect 26 0 79 0;
#X connect 26 0 80 0;
#X connect 26 0 81 0;
#X connect 26 0 82 0;
#X connect 26 0 83 0;
#X connect 26 0 84 0;
#X connect 26 0 85 0;
#X connect 26 0 86 0;
#X connect 26 0 87 0;
#X connect 26 0 88 0;
#X connect 26 0 89 0;
#X connect 26 0 90 0;
#X connect 26 0 98 0;
#X connect 26 0 99 0;
#X connect 26 0 107 0;
#X connect 26 0 108 0;
#X connect 27 0 28 0;
#X connect 27 1 28 1;
#X connect 28 0 120 0;
#X connect 29 0 28 0;
#X connect 30 0 31 0;
#X connect 30 1 31 1;
#X connect 31 0 109 0;
#X connect 32 0 31 0;
#X connect 33 0 34 0;
#X connect 33 1 34 1;
#X connect 34 0 110 0;
#X connect 35 0 34 0;
#X connect 36 0 29 0;
#X connect 37 0 38 0;
#X connect 38 0 39 0;
#X connect 38 1 39 1;
#X connect 39 0 111 0;
#X connect 40 0 44 0;
#X connect 41 0 12 0;
#X connect 41 0 129 1;
#X connect 42 0 43 0;
#X connect 43 0 44 0;
#X connect 43 1 44 1;
#X connect 44 0 112 0;
#X connect 45 0 49 0;
#X connect 46 0 13 0;
#X connect 46 0 130 1;
#X connect 47 0 48 0;
#X connect 48 0 49 0;
#X connect 48 1 49 1;
#X connect 49 0 113 0;
#X connect 50 0 18 0;
#X connect 51 0 19 0;
#X connect 52 0 20 0;
#X connect 53 0 21 0;
#X connect 54 0 46 0;
#X connect 55 0 41 0;
#X connect 56 0 23 0;
#X connect 57 0 22 0;
#X connect 58 0 25 0;
#X connect 59 0 60 0;
#X connect 60 0 61 0;
#X connect 60 1 61 1;
#X connect 61 0 114 0;
#X connect 62 0 63 0;
#X connect 63 0 64 0;
#X connect 63 1 64 1;
#X connect 64 0 115 0;
#X connect 65 0 69 0;
#X connect 66 0 24 0;
#X connect 67 0 68 0;
#X connect 68 0 69 0;
#X connect 68 1 69 1;
#X connect 69 0 116 0;
#X connect 70 0 71 0;
#X connect 71 0 72 0;
#X connect 71 1 72 1;
#X connect 72 0 117 0;
#X connect 73 0 2 0;
#X connect 74 0 3 0;
#X connect 75 0 37 0;
#X connect 76 0 32 0;
#X connect 77 0 35 0;
#X connect 78 0 4 0;
#X connect 79 0 42 0;
#X connect 80 0 40 0;
#X connect 81 0 47 0;
#X connect 82 0 45 0;
#X connect 83 0 5 0;
#X connect 84 0 59 0;
#X connect 85 0 62 0;
#X connect 86 0 6 0;
#X connect 87 0 67 0;
#X connect 88 0 65 0;
#X connect 89 0 70 0;
#X connect 90 0 7 0;
#X connect 92 0 91 0;
#X connect 92 0 135 1;
#X connect 93 0 97 0;
#X connect 94 0 92 0;
#X connect 95 0 96 0;
#X connect 96 0 97 0;
#X connect 96 1 97 1;
#X connect 97 0 118 0;
#X connect 98 0 95 0;
#X connect 99 0 93 0;
#X connect 100 0 106 0;
#X connect 102 0 101 0;
#X connect 102 0 136 1;
#X connect 103 0 102 0;
#X connect 104 0 105 0;
#X connect 105 0 106 0;
#X connect 105 1 106 1;
#X connect 106 0 119 0;
#X connect 107 0 104 0;
#X connect 108 0 100 0;
#X connect 109 0 51 0;
#X connect 110 0 53 0;
#X connect 111 0 52 0;
#X connect 112 0 55 0;
#X connect 113 0 54 0;
#X connect 114 0 57 0;
#X connect 115 0 56 0;
#X connect 116 0 66 0;
#X connect 117 0 58 0;
#X connect 118 0 94 0;
#X connect 119 0 103 0;
#X connect 120 0 50 0;
#X connect 122 0 123 0;
#X connect 123 0 120 1;
#X connect 123 0 119 1;
#X connect 123 0 118 1;
#X connect 123 0 117 1;
#X connect 123 0 116 1;
#X connect 123 0 115 1;
#X connect 123 0 114 1;
#X connect 123 0 113 1;
#X connect 123 0 112 1;
#X connect 123 0 111 1;
#X connect 123 0 110 1;
#X connect 123 0 109 1;
#X connect 124 0 125 0;
#X connect 124 0 136 0;
#X connect 124 0 135 0;
#X connect 124 0 134 0;
#X connect 124 0 133 0;
#X connect 124 0 132 0;
#X connect 124 0 131 0;
#X connect 124 0 130 0;
#X connect 124 0 129 0;
#X connect 124 0 128 0;
#X connect 124 0 127 0;
#X connect 124 0 126 0;
#X connect 125 0 137 0;
#X connect 126 0 138 0;
#X connect 127 0 139 0;
#X connect 128 0 140 0;
#X connect 129 0 141 0;
#X connect 130 0 142 0;
#X connect 131 0 143 0;
#X connect 132 0 144 0;
#X connect 133 0 145 0;
#X connect 134 0 146 0;
#X connect 135 0 147 0;
#X connect 136 0 148 0;
