#N canvas 238 104 1276 770 12;
#N canvas 192 192 450 250 (subpatch) 0;
#X array sample 2.06139e+07 float 2;
#X coords 0 1 2.06139e+07 -1 468 56 1 0 0;
#X restore 30 72 graph;
#X obj 189 334 random;
#X msg 189 359 next \$1;
#X obj 30 245 soundfiler;
#X floatatom 30 269 10 0 0 0 - - - 0;
#X msg 351 224 80;
#X obj 189 278 metro 30, f 10;
#X msg 432 223 1;
#X obj 189 483 outlet~;
#X obj 189 246 loadbang;
#X obj 432 198 loadbang;
#X obj 351 199 loadbang;
#X obj 338 255 s g-dur;
#X obj 418 256 s g-speed;
#X obj 256 147 inlet frequency, f 9;
#X obj 338 147 inlet duration, f 8;
#X obj 418 147 inlet speed, f 5;
#X obj 30 147 inlet load, f 6;
#X text 27 24 granular synthesis with 5-sec recording of steel hang;
#X obj 300 405 vline~;
#X obj 300 351 f;
#X obj 288 315 t b;
#X obj 188 425 *~;
#X obj 348 313 - 200;
#X msg 300 381 1 100 \, 0 100 \$1;
#X obj 189 385 clone grain 8;
#X msg 56 336 \; sample normalize;
#X obj 188 449 *~ 0.3;
#X msg 30 193 read -resize 02.wav sample, f 28;
#X connect 1 0 2 0;
#X connect 1 0 21 0;
#X connect 2 0 25 0;
#X connect 3 0 4 0;
#X connect 4 0 1 1;
#X connect 5 0 12 0;
#X connect 6 0 1 0;
#X connect 7 0 13 0;
#X connect 9 0 6 0;
#X connect 10 0 7 0;
#X connect 11 0 5 0;
#X connect 14 0 6 1;
#X connect 15 0 12 0;
#X connect 15 0 23 0;
#X connect 16 0 13 0;
#X connect 17 0 28 0;
#X connect 17 0 26 0;
#X connect 19 0 22 1;
#X connect 20 0 24 0;
#X connect 21 0 20 0;
#X connect 22 0 27 0;
#X connect 23 0 20 1;
#X connect 24 0 19 0;
#X connect 25 0 22 0;
#X connect 27 0 8 0;
#X connect 28 0 3 0;
