#N canvas 207 174 1276 770 12;
#N canvas 0 50 450 250 (subpatch) 0;
#X array sample4 586318 float 2;
#X coords 0 1 586318 -1 468 56 1 0 0;
#X restore 30 72 graph;
#X obj 189 334 random;
#X msg 189 359 next \$1;
#X obj 60 256 soundfiler;
#X floatatom 60 280 12 0 0 0 - - - 0;
#X msg 351 224 80;
#X obj 189 278 metro 30, f 10;
#X msg 432 223 1;
#X obj 176 489 outlet~;
#X obj 189 246 loadbang;
#X obj 432 198 loadbang;
#X obj 351 199 loadbang;
#X obj 256 147 inlet frequency, f 9;
#X obj 338 147 inlet duration, f 8;
#X obj 418 147 inlet speed, f 5;
#X obj 30 147 inlet load, f 6;
#X text 27 24 granular synthesis with 5-sec recording of steel hang;
#X obj 300 405 vline~;
#X obj 300 351 f;
#X obj 288 315 t b;
#X obj 188 425 *~;
#X obj 13 300 del 10;
#X obj 418 255 s g-speed4;
#X obj 338 254 s g-dur4;
#X obj 189 385 clone grain4 8;
#X obj 348 313 - 100;
#X msg 300 381 1 50 \, 0 50 \$1;
#X msg 13 337 \; sample4 normalize 1.5;
#X msg 43 196 read 01.wav sample4;
#X obj 179 458 *~ 0.1;
#X connect 1 0 2 0;
#X connect 1 0 19 0;
#X connect 2 0 24 0;
#X connect 3 0 4 0;
#X connect 4 0 1 1;
#X connect 5 0 23 0;
#X connect 6 0 1 0;
#X connect 7 0 22 0;
#X connect 9 0 6 0;
#X connect 10 0 7 0;
#X connect 11 0 5 0;
#X connect 12 0 6 1;
#X connect 13 0 23 0;
#X connect 13 0 25 0;
#X connect 14 0 22 0;
#X connect 15 0 21 0;
#X connect 15 0 28 0;
#X connect 17 0 20 1;
#X connect 18 0 26 0;
#X connect 19 0 18 0;
#X connect 20 0 29 0;
#X connect 21 0 27 0;
#X connect 24 0 20 0;
#X connect 25 0 18 1;
#X connect 26 0 17 0;
#X connect 28 0 3 0;
#X connect 29 0 8 0;
